<svg width="302.000000" height="302.000000" viewBox="0 0 302 302" fill="none" xmlns="http://www.w3.org/2000/svg" xmlns:xlink="http://www.w3.org/1999/xlink">
	<desc>
			Created with Pixso.
	</desc>
	<defs>
		<filter id="filter_20_203_dd" x="0.000000" y="0.000000" width="302.000000" height="302.000000" filterUnits="userSpaceOnUse" color-interpolation-filters="sRGB">
			<feFlood flood-opacity="0" result="BackgroundImageFix"/>
			<feColorMatrix in="SourceAlpha" type="matrix" values="0 0 0 0 0 0 0 0 0 0 0 0 0 0 0 0 0 0 127 0" result="hardAlpha"/>
			<feOffset dx="2" dy="9"/>
			<feGaussianBlur stdDeviation="8.66667"/>
			<feComposite in2="hardAlpha" operator="out" k2="-1" k3="1"/>
			<feColorMatrix type="matrix" values="0 0 0 0 0 0 0 0 0 0 0 0 0 0 0 0 0 0 0.15 0"/>
			<feBlend mode="normal" in2="BackgroundImageFix" result="effect_dropShadow_1"/>
			<feBlend mode="normal" in="SourceGraphic" in2="effect_dropShadow_1" result="shape"/>
		</filter>
	</defs>
	<g filter="url(#filter_20_203_dd)">
		<path id="Убрать верхний слой" d="M149 17C79.9644 17 24 72.9644 24 142C24 211.036 79.9644 267 149 267C218.036 267 274 211.036 274 142C274 72.9644 218.036 17 149 17ZM116.5 245.089C126.814 248.363 137.647 250 149 250C163.94 250 177.98 247.165 191.12 241.495C204.26 235.825 215.69 228.13 225.41 218.41C235.13 208.69 242.825 197.26 248.495 184.12C249.856 180.965 251.054 177.758 252.089 174.5C255.363 164.186 257 153.353 257 142C257 127.06 254.165 113.02 248.495 99.88C244.061 89.6036 238.388 80.3731 231.476 72.1885C229.55 69.9078 227.528 67.7083 225.41 65.59C215.69 55.87 204.26 48.175 191.12 42.505C187.965 41.1436 184.758 39.9457 181.5 38.9112C171.186 35.6371 160.353 34 149 34C134.06 34 120.02 36.835 106.88 42.505C96.6035 46.9394 87.373 52.6123 79.1884 59.5238C76.9077 61.4497 74.7083 63.4718 72.59 65.59C70.4717 67.7083 68.4496 69.9077 66.5237 72.1884C59.6123 80.373 53.9393 89.6036 49.505 99.88C48.1436 103.035 46.9457 106.242 45.9112 109.5C42.6371 119.814 41 130.647 41 142C41 156.94 43.835 170.98 49.505 184.12C55.175 197.26 62.87 208.69 72.59 218.41C74.7082 220.528 76.9076 222.55 79.1882 224.476C87.3729 231.388 96.6035 237.061 106.88 241.495C110.035 242.856 113.242 244.054 116.5 245.089ZM188.93 218.72C180.061 223.303 170.351 226.26 159.8 227.59L159.8 56.41C170.351 57.7399 180.061 60.6967 188.93 65.2802C198.067 70.002 206.312 76.4503 213.665 84.625C220.302 92.0035 225.418 100.014 229.015 108.658C233.272 118.886 235.4 130 235.4 142C235.4 164.14 228.155 183.265 213.665 199.375C206.312 207.55 198.067 213.998 188.93 218.72Z" clip-rule="evenodd" fill="#EBC03D" fill-opacity="1.000000" fill-rule="evenodd"/>
	</g>
</svg>
